<svg width="18" height="18" viewBox="0 0 18 18" fill="none" xmlns="http://www.w3.org/2000/svg">
<g clip-path="url(#clip0)">
<path d="M6.35821 13.9055C5.92576 13.4784 5.33222 13.2144 4.67798 13.2144C3.35852 13.2144 2.28516 14.2877 2.28516 15.6072C2.28516 16.9265 3.35852 18 4.67798 18C5.99744 18 7.07081 16.9265 7.07081 15.6072V7.20263L15.0558 4.15666V10.5418C14.6234 10.1148 14.0298 9.85061 13.3756 9.85061C12.0561 9.85061 10.9828 10.9241 10.9828 12.2434C10.9828 13.5629 12.0561 14.6363 13.3756 14.6363C14.6949 14.6363 15.7684 13.5629 15.7684 12.2434V0.355387C15.7684 0.112588 15.5133 -0.0645664 15.2852 0.0225004L13.8745 0.560557C13.4471 0.723567 13.7005 1.38975 14.1286 1.22633L15.0558 0.872706V3.39394L7.07081 6.4399V3.91867L11.4398 2.25204C11.8673 2.08903 11.6138 1.42285 11.1859 1.58613L6.58755 3.34024C6.44953 3.39297 6.35821 3.52536 6.35821 3.67313V13.9055ZM4.67798 17.2874C3.75156 17.2874 2.99776 16.5336 2.99776 15.6072C2.99776 14.6806 3.75156 13.927 4.67798 13.927C5.60441 13.927 6.35821 14.6806 6.35821 15.6072C6.35821 16.5336 5.60441 17.2874 4.67798 17.2874ZM13.3756 13.9237C12.449 13.9237 11.6954 13.17 11.6954 12.2434C11.6954 11.317 12.449 10.5632 13.3756 10.5632C14.302 10.5632 15.0558 11.317 15.0558 12.2434C15.0558 13.17 14.302 13.9237 13.3756 13.9237Z" fill="white"/>
<path d="M12.6285 1.76619C12.822 1.76619 12.9848 1.60332 12.9848 1.40982C12.9848 1.21619 12.822 1.05359 12.6285 1.05359C12.4404 1.05345 12.2812 1.20671 12.2729 1.3943C12.2641 1.59357 12.4286 1.76619 12.6285 1.76619Z" fill="white"/>
</g>
<defs>
<clipPath id="clip0">
<rect width="18" height="18" fill="white"/>
</clipPath>
</defs>
</svg>
