<svg width="18" height="18" viewBox="0 0 18 18" fill="none" xmlns="http://www.w3.org/2000/svg">
<path d="M15.5613 5.55898V2.0751C15.5556 1.94007 15.483 1.81674 15.3678 1.74605C15.2579 1.67844 15.1255 1.65751 15.0001 1.688L7.31619 4.74607H3.52263C2.80745 4.76019 2.15588 5.16003 1.81939 5.79122L1.471 5.9267C0.588966 6.23237 -0.00185069 7.06418 3.86759e-05 7.99767C-0.00551829 8.92787 0.588225 9.75601 1.471 10.0493L1.70325 10.1461C1.88207 10.609 2.22716 10.9886 2.67097 11.2106L3.69679 14.9267C3.97197 15.9375 5.01446 16.5338 6.02523 16.2586C6.43293 16.1476 6.79191 15.9037 7.04519 15.5654C7.39647 15.0793 7.5102 14.4609 7.35486 13.8816L6.65809 11.3267H7.31615L15 14.4429L15.1355 14.4816C15.2167 14.4828 15.2967 14.4628 15.3677 14.4235C15.4826 14.3619 15.5562 14.2441 15.5613 14.1138V10.4364C16.9081 10.4364 18 9.34453 17.9999 7.99764C17.9999 6.65081 16.9082 5.55902 15.5613 5.55898ZM1.62586 9.27511C1.10862 9.06813 0.781385 8.55389 0.812948 7.99767C0.781385 7.44146 1.10862 6.92722 1.62586 6.72024V9.27511ZM6.42585 15.0816C6.21268 15.3686 5.8736 15.5345 5.51618 15.5267C5.00727 15.5112 4.56782 15.1659 4.43231 14.6751L3.52263 11.3267H5.86456L6.60004 14.0751C6.70055 14.4195 6.63627 14.791 6.42585 15.0816ZM7.04523 10.5525H3.52263C2.9356 10.5847 2.43362 10.1349 2.40142 9.54784C2.39998 9.52147 2.3995 9.49505 2.40005 9.46864V6.72024C2.37834 6.07926 2.88036 5.54201 3.52134 5.52027C3.52178 5.52027 3.52219 5.52023 3.52263 5.52023H7.04523V10.5525ZM14.7872 13.5332L7.81939 10.7461V5.44284L14.7872 2.65573V13.5332ZM15.5613 9.6622V6.33318C16.4807 6.33321 17.2258 7.07848 17.2258 7.99778C17.2257 8.91698 16.4806 9.66217 15.5613 9.6622Z" fill="white"/>
</svg>
