<svg width="16" height="16" viewBox="0 0 16 16" fill="none" xmlns="http://www.w3.org/2000/svg">
<path d="M9.5625 2.59375C9.39 2.59375 9.25 2.73375 9.25 2.90625C9.25 3.07875 9.39 3.21875 9.5625 3.21875C9.735 3.21875 9.875 3.07875 9.875 2.90625C9.875 2.73375 9.735 2.59375 9.5625 2.59375Z" fill="#6FFFE5"/>
<path d="M6.4375 2.59375C6.265 2.59375 6.125 2.73375 6.125 2.90625C6.125 3.07875 6.265 3.21875 6.4375 3.21875C6.61 3.21875 6.75 3.07875 6.75 2.90625C6.75 2.73375 6.61 2.59375 6.4375 2.59375Z" fill="#6FFFE5"/>
<path d="M14.7851 9.34006C15.0533 8.9375 15.1875 8.43522 15.1875 8C15.1875 7.34387 14.896 6.73428 14.3959 6.32091C14.5066 6.05641 14.5625 5.78131 14.5625 5.5C14.5625 4.62953 14.0545 3.81866 13.2992 3.44C13.4138 2.48956 12.7945 1.61837 11.8767 1.39616C11.5175 0.56575 10.718 0 9.875 0C9.09031 0 8.38653 0.457687 8 1.1255C7.61344 0.457687 6.90966 0 6.125 0C5.28197 0 4.48244 0.56575 4.12328 1.39619C3.2 1.61981 2.5865 2.49534 2.70078 3.44C1.94553 3.81862 1.4375 4.62953 1.4375 5.5C1.4375 5.78131 1.49344 6.05641 1.60413 6.32091C1.10397 6.73431 0.8125 7.34387 0.8125 8C0.8125 8.4375 0.947812 8.93913 1.21491 9.34003C0.953906 9.70847 0.8125 10.1451 0.8125 10.5938C0.8125 11.1755 1.04837 11.7297 1.46559 12.1412C1.25109 13.4378 2.28516 14.75 3.625 14.75C3.63469 14.75 3.64422 14.7498 3.65356 14.7496C4.09778 15.5159 4.92234 16 5.8125 16C6.74025 16 7.56925 15.4431 8 14.6408C8.43075 15.4431 9.25975 16 10.1875 16C11.0777 16 11.9022 15.5159 12.3464 14.7496C12.3558 14.7498 12.3653 14.75 12.375 14.75C13.5608 14.75 14.5625 13.7053 14.5625 12.4688C14.5625 12.3635 14.5533 12.2552 14.5344 12.1412C14.9516 11.7297 15.1875 11.1755 15.1875 10.5938C15.1875 10.1451 15.0461 9.70847 14.7851 9.34006ZM7.6875 4.73066C7.5035 4.62394 7.29009 4.5625 7.0625 4.5625C6.88991 4.5625 6.75 4.70241 6.75 4.875C6.75 5.04759 6.88991 5.1875 7.0625 5.1875C7.40712 5.1875 7.6875 5.46788 7.6875 5.8125V11.7553C7.22903 11.2353 6.55866 10.9062 5.8125 10.9062C5.63991 10.9062 5.5 11.0462 5.5 11.2188C5.5 11.3913 5.63991 11.5312 5.8125 11.5312C6.84637 11.5312 7.6875 12.3724 7.6875 13.4062C7.6875 14.4734 6.82884 15.375 5.8125 15.375C5.089 15.375 4.42297 14.9472 4.11566 14.285C4.059 14.163 3.93069 14.091 3.79691 14.1061C3.77481 14.1086 3.75284 14.1115 3.73088 14.1145C2.8415 14.2362 1.83994 13.2291 2.11106 12.1024C2.13891 11.9867 2.09859 11.8653 2.00712 11.7892C1.64512 11.4879 1.4375 11.0522 1.4375 10.5938C1.4375 10.3103 1.51766 10.0329 1.66681 9.78963C2.04163 10.0968 2.50784 10.2812 3 10.2812C3.17259 10.2812 3.3125 10.1413 3.3125 9.96875C3.3125 9.79616 3.17259 9.65625 3 9.65625C2.15191 9.65625 1.4375 8.88219 1.4375 8C1.4375 7.46484 1.71028 6.97253 2.16725 6.68306C2.30803 6.59387 2.35406 6.40991 2.27184 6.26494C2.13294 6.01997 2.0625 5.76259 2.0625 5.5C2.0625 4.65656 2.75006 3.84375 3.625 3.84375C4.45738 3.84375 5.1875 4.61772 5.1875 5.5C5.1875 5.67259 5.32741 5.8125 5.5 5.8125C5.67259 5.8125 5.8125 5.67259 5.8125 5.5C5.8125 4.26344 4.81075 3.21875 3.625 3.21875C3.52038 3.21875 3.41631 3.22722 3.31328 3.24325C3.31313 3.23503 3.3125 3.22703 3.3125 3.21875C3.3125 2.52134 3.87866 1.96875 4.5625 1.96875C4.89631 1.96875 5.21031 2.09878 5.44663 2.33484C5.56872 2.45681 5.76656 2.45669 5.88856 2.33463C6.01053 2.2125 6.01044 2.01466 5.88834 1.89269C5.60325 1.60791 5.24266 1.42628 4.85187 1.36609C5.12747 0.957 5.58575 0.625 6.125 0.625C6.95738 0.625 7.6875 1.39894 7.6875 2.28125V4.73066ZM13 10.2812C13.4922 10.2812 13.9584 10.0968 14.3332 9.78972C14.4823 10.0329 14.5625 10.3103 14.5625 10.5938C14.5625 11.0522 14.3549 11.4879 13.9929 11.7892C13.9014 11.8653 13.8611 11.9868 13.889 12.1024C13.9221 12.24 13.9375 12.3564 13.9375 12.4687C13.9375 13.4387 13.0602 14.2227 12.2692 14.1145C12.2472 14.1115 12.2252 14.1086 12.2031 14.1061C12.0691 14.0909 11.941 14.163 11.8844 14.285C11.5771 14.9472 10.911 15.375 10.1875 15.375C9.17116 15.375 8.3125 14.4734 8.3125 13.4062C8.3125 12.3724 9.15363 11.5312 10.1875 11.5312C10.3601 11.5312 10.5 11.3913 10.5 11.2188C10.5 11.0462 10.3601 10.9062 10.1875 10.9062C9.44134 10.9062 8.77097 11.2353 8.3125 11.7553V5.8125C8.3125 5.46788 8.59288 5.1875 8.9375 5.1875C9.11006 5.1875 9.25 5.04759 9.25 4.875C9.25 4.70241 9.11006 4.5625 8.9375 4.5625C8.70991 4.5625 8.4965 4.62394 8.3125 4.73066V2.28125C8.3125 1.39894 9.04263 0.625 9.875 0.625C10.4143 0.625 10.8725 0.957 11.1481 1.36606C10.7573 1.42625 10.3968 1.60787 10.1117 1.89266C9.98953 2.01463 9.98941 2.21247 10.1114 2.33459C10.2333 2.45672 10.4312 2.45681 10.5533 2.33484C10.7897 2.09878 11.1037 1.96875 11.4375 1.96875C12.1248 1.96875 12.6875 2.52459 12.6875 3.21875C12.6875 3.227 12.6869 3.23503 12.6867 3.24325C12.5837 3.22722 12.4796 3.21875 12.375 3.21875C11.1892 3.21875 10.1875 4.26344 10.1875 5.5C10.1875 5.67259 10.3274 5.8125 10.5 5.8125C10.6726 5.8125 10.8125 5.67259 10.8125 5.5C10.8125 4.61772 11.5426 3.84375 12.375 3.84375C13.2494 3.84375 13.9375 4.65616 13.9375 5.5C13.9375 5.76259 13.8671 6.01997 13.7282 6.26494C13.646 6.40991 13.692 6.59387 13.8328 6.68306C14.2897 6.97253 14.5625 7.46484 14.5625 8C14.5625 8.88534 13.8456 9.65625 13 9.65625C12.8274 9.65625 12.6875 9.79616 12.6875 9.96875C12.6875 10.1413 12.8274 10.2812 13 10.2812Z" fill="#6FFFE5"/>
<path d="M6.98291 6.68916C6.86784 6.56053 6.67031 6.54953 6.54166 6.66459C5.53953 7.561 3.9375 6.84459 3.9375 5.5C3.9375 5.32741 3.79759 5.1875 3.625 5.1875C3.45241 5.1875 3.3125 5.32741 3.3125 5.5C3.3125 6.58484 4.10647 7.48734 5.14375 7.65803C5.02344 8.03703 4.66831 8.3125 4.25 8.3125C4.07741 8.3125 3.9375 8.45241 3.9375 8.625C3.9375 8.79759 4.07741 8.9375 4.25 8.9375C5.01116 8.9375 5.64656 8.39031 5.78444 7.66869C6.21903 7.61184 6.62806 7.42588 6.95834 7.13041C7.08697 7.01534 7.09797 6.81778 6.98291 6.68916Z" fill="#6FFFE5"/>
<path d="M3.625 12.1562C3.45241 12.1562 3.3125 12.2962 3.3125 12.4688C3.3125 12.6413 3.45241 12.7812 3.625 12.7812C4.45738 12.7812 5.1875 13.5552 5.1875 14.4375C5.1875 14.6101 5.32741 14.75 5.5 14.75C5.67259 14.75 5.8125 14.6101 5.8125 14.4375C5.8125 13.2009 4.81075 12.1562 3.625 12.1562Z" fill="#6FFFE5"/>
<path d="M6.12501 9.65625C5.06607 9.65625 4.15689 10.237 3.67814 11.0815C3.59304 11.2317 3.64576 11.4224 3.79589 11.5075C3.94604 11.5926 4.13673 11.5399 4.22185 11.3897C4.59482 10.7317 5.30251 10.2812 6.12501 10.2812C6.2976 10.2812 6.43751 10.1413 6.43751 9.96875C6.43751 9.79616 6.2976 9.65625 6.12501 9.65625Z" fill="#6FFFE5"/>
<path d="M11.75 8.3125C11.3317 8.3125 10.9766 8.03703 10.8563 7.65803C11.8935 7.48734 12.6875 6.58484 12.6875 5.5C12.6875 5.32741 12.5476 5.1875 12.375 5.1875C12.2024 5.1875 12.0625 5.32741 12.0625 5.5C12.0625 6.36156 11.3616 7.0625 10.5 7.0625C10.1151 7.0625 9.74523 6.92119 9.45835 6.66459C9.32976 6.54953 9.13216 6.5605 9.0171 6.68916C8.90201 6.81778 8.91304 7.01534 9.04166 7.13041C9.37194 7.42588 9.78101 7.61184 10.2156 7.66869C10.3534 8.39031 10.9889 8.9375 11.75 8.9375C11.9226 8.9375 12.0625 8.79759 12.0625 8.625C12.0625 8.45241 11.9226 8.3125 11.75 8.3125Z" fill="#6FFFE5"/>
<path d="M12.375 12.1562C11.1892 12.1562 10.1875 13.2009 10.1875 14.4375C10.1875 14.6101 10.3274 14.75 10.5 14.75C10.6726 14.75 10.8125 14.6101 10.8125 14.4375C10.8125 13.5552 11.5426 12.7812 12.375 12.7812C12.5476 12.7812 12.6875 12.6413 12.6875 12.4688C12.6875 12.2962 12.5476 12.1562 12.375 12.1562Z" fill="#6FFFE5"/>
<path d="M12.3219 11.0815C11.8443 10.2391 10.9364 9.65625 9.875 9.65625C9.70244 9.65625 9.5625 9.79616 9.5625 9.96875C9.5625 10.1413 9.70244 10.2812 9.875 10.2812C10.6969 10.2812 11.4051 10.7316 11.7781 11.3897C11.8633 11.5401 12.0542 11.5925 12.2041 11.5075C12.3542 11.4224 12.4069 11.2317 12.3219 11.0815Z" fill="#6FFFE5"/>
</svg>
