<svg width="15" height="15" viewBox="0 0 15 15" fill="none" xmlns="http://www.w3.org/2000/svg">
<path d="M14.25 3H11V2C10.9991 1.30994 10.4401 0.750854 9.75 0.75H5.25C4.55994 0.750854 4.00085 1.30994 4 2V3H0.75C0.335815 3 0 3.33582 0 3.75V9.31494C0.00158691 9.63208 0.201416 9.91419 0.5 10.0208V13.5C0.5 13.9142 0.835815 14.25 1.25 14.25H13.75C14.1642 14.25 14.5 13.9142 14.5 13.5V10.021C14.7986 9.91431 14.9985 9.63208 15 9.31494V3.75C15 3.33582 14.6642 3 14.25 3ZM4.5 2C4.5 1.58582 4.83582 1.25 5.25 1.25H9.75C10.1642 1.25 10.5 1.58582 10.5 2V3H10V2C10 1.86194 9.88806 1.75 9.75 1.75H5.25C5.11194 1.75 5 1.86194 5 2V3H4.5V2ZM9.5 3H5.5V2.25H9.5V3ZM14 13.5C14 13.6381 13.8881 13.75 13.75 13.75H1.25C1.11194 13.75 1 13.6381 1 13.5V10.1067L6.5 10.8652V11.5C6.5 11.9142 6.83582 12.25 7.25 12.25H7.75C8.16418 12.25 8.5 11.9142 8.5 11.5V10.8652L14 10.1067V13.5ZM8 11.5C8 11.6381 7.88806 11.75 7.75 11.75H7.25C7.11194 11.75 7 11.6381 7 11.5V10C7 9.86194 7.11194 9.75 7.25 9.75H7.75C7.88806 9.75 8 9.86194 8 10V11.5ZM14.5 9.31494C14.5001 9.43958 14.4084 9.54529 14.285 9.56275L14.2157 9.57227L8.5 10.3605V10C8.5 9.58582 8.16418 9.25 7.75 9.25H7.25C6.83582 9.25 6.5 9.58582 6.5 10V10.3605L0.71521 9.56275C0.591797 9.54541 0.499878 9.4397 0.5 9.31494V3.75C0.5 3.61194 0.611938 3.5 0.75 3.5H14.25C14.3881 3.5 14.5 3.61194 14.5 3.75V9.31494Z" fill="#E57DFF"/>
</svg>
