<svg width="18" height="12" viewBox="0 0 18 12" fill="none" xmlns="http://www.w3.org/2000/svg">
<path d="M0.109863 6.26516L5.73486 11.8902C5.88136 12.0367 6.11866 12.0367 6.26513 11.8902C6.41162 11.7437 6.41162 11.5064 6.26513 11.3599L1.28025 6.37502L17.625 6.37502C17.8323 6.37502 18 6.20729 18 6.00001C18 5.79273 17.8323 5.625 17.625 5.625L1.28025 5.625L6.26513 0.640164C6.41162 0.493669 6.41162 0.256365 6.26513 0.109904C6.19189 0.0366735 6.09592 4.1008e-05 5.99998 4.1008e-05C5.90403 4.1008e-05 5.80809 0.0366735 5.73483 0.109904L0.109827 5.7349C-0.0366325 5.88136 -0.0366325 6.11867 0.109863 6.26516Z" fill="#1D1D1D"/>
</svg>
