<svg width="73" height="77" viewBox="0 0 73 77" xmlns="http://www.w3.org/2000/svg">
    <path d="M70.4962 64.8453L45.6823 40.0304C45.4499 39.7971 45.2014 39.5901 44.9455 39.3964L49.3403 34.7687C49.565 34.5424 49.7776 34.3044 49.9732 34.0597C55.8078 36.2605 62.6541 35.0233 67.3438 30.3342C70.7645 26.9124 72.4896 22.1808 72.0721 17.3519C72.0269 16.8054 71.6648 16.333 71.15 16.1465C70.6341 15.958 70.056 16.0865 69.6678 16.4733L61.7151 24.4255L53.6634 22.3958L51.3799 14.0899L59.3306 6.13874C59.7208 5.74987 59.8483 5.17129 59.6604 4.656C59.4732 4.13927 59.0009 3.78029 58.4528 3.73218C53.6244 3.31599 48.8925 5.04007 45.4705 8.46186C40.7848 13.1476 39.5444 19.9902 41.7428 25.8224C41.5037 26.0246 41.2657 26.2395 41.0324 26.4695L34.5639 32.682L22.6855 20.8047C22.5372 20.6559 22.379 20.525 22.216 20.4021C22.3553 20.1576 22.4909 19.9058 22.6174 19.6445C25.1261 20.1273 29.7123 15.2422 33.6073 11.3485L22.2601 0C17.186 5.07491 13.4808 8.48072 13.9617 10.9894C12.8017 11.5562 11.7676 12.2492 11.0327 12.985L9.43421 14.583C8.39644 15.6222 7.77055 16.9146 7.54711 18.2613C7.39207 18.4384 7.23432 18.6249 7.07753 18.8244L6.48184 19.5731C6.46522 19.5914 6.41391 19.6651 6.39969 19.684L5.85978 20.4398C5.52206 20.8904 5.22686 21.3798 4.9414 21.8521C4.83608 22.0274 4.72883 22.2031 4.61935 22.3782C4.60193 22.4084 4.58482 22.4382 4.56932 22.4681L4.32942 22.92C4.03949 23.4638 3.73853 24.0267 3.48104 24.646L3.43948 24.7447C3.13581 25.466 2.8211 26.2129 2.6015 27.0045L2.49521 27.347C2.40826 27.6286 2.31988 27.9096 2.23868 28.2454L2.01812 29.3375C1.85365 30.0205 1.79835 30.6942 1.75025 31.2908L1.71812 31.6829C1.63693 32.3016 1.66058 32.8849 1.68264 33.3998C1.69015 33.5722 1.69686 33.7413 1.70198 33.9694C1.70773 34.0643 1.70869 34.1569 1.71157 34.2481C1.71716 34.4781 1.72339 34.7395 1.76783 35.0142L1.90624 35.9005C1.93597 36.0718 1.96106 36.2382 1.98472 36.3977C2.03762 36.7576 2.09196 37.1299 2.19921 37.4832L2.77971 39.4974C2.95872 40.1096 3.54018 40.5149 4.17646 40.4705C4.51322 40.447 4.81594 40.3014 5.0413 40.0755C5.24252 39.8743 5.38189 39.6098 5.42441 39.3114L5.72537 37.2636C5.74758 37.1011 5.81743 36.8631 5.88967 36.6112C5.94114 36.4365 5.99116 36.2583 6.02984 36.1063L6.24385 35.342C6.26991 35.2386 6.32041 35.1379 6.36485 35.0345C6.40736 34.9386 6.44988 34.8398 6.48776 34.7425C6.55952 34.5799 6.62713 34.4176 6.69362 34.2509C6.82548 33.924 6.95014 33.6165 7.1405 33.3146C7.22329 33.1752 7.30017 33.0368 7.37865 32.8955C7.57699 32.5404 7.76543 32.205 7.98935 31.9271C8.00342 31.9106 8.01621 31.8922 8.03091 31.8727L8.53581 31.1765C8.63922 31.0456 8.75542 30.9219 8.86842 30.7973C8.94865 30.7093 9.02905 30.621 9.13054 30.5048C9.42862 30.1463 9.77865 29.8336 10.1164 29.526L10.2973 29.3634C10.5476 29.131 10.8372 28.9124 11.1418 28.6813C11.2665 28.5881 11.3885 28.4955 11.5083 28.4044C11.6622 28.3047 11.8112 28.2051 11.9579 28.1064C12.2328 27.9206 12.4708 27.76 12.7459 27.617L13.3444 27.2764L13.95 26.9794C14.1612 26.8702 14.3691 26.7862 14.5608 26.7088C14.6745 26.6615 14.7871 26.6156 14.8914 26.5704C14.9977 26.5336 15.1002 26.4938 15.197 26.458C15.3268 26.4107 15.4389 26.3653 15.591 26.3257L15.7544 26.2889C15.9324 26.5771 16.1411 26.8511 16.3916 27.1014L28.1415 38.8517L3.05813 62.9444C3.04822 62.9539 3.03879 62.9642 3.02968 62.9729C-0.0916315 66.0942 -0.59989 70.6656 2.5219 73.7879C5.64369 76.9092 9.92457 76.1089 13.0451 72.9888C13.0588 72.9755 13.0707 72.9632 13.0828 72.949L35.2109 49.6487C35.3407 49.8016 35.4692 49.9556 35.6133 50.1L60.4253 74.9141C63.2057 77.6953 67.7156 77.6953 70.496 74.9141C73.2756 72.1346 73.2756 67.6246 70.4962 64.8453ZM9.80678 70.4152C8.65744 71.5658 6.79319 71.5658 5.6429 70.4152C4.49372 69.2655 4.49372 67.4024 5.6429 66.2527C6.79207 65.1039 8.65648 65.1031 9.80678 66.2527C10.955 67.4025 10.955 69.2655 9.80678 70.4152Z"/>
</svg>
