<svg width="16" height="16" viewBox="0 0 16 16" xmlns="http://www.w3.org/2000/svg">
    <g clip-path="url(#clip0)">
        <path d="M15.9408 7.81065C15.8148 7.6273 12.7867 3.33324 7.99999 3.33324C3.89258 3.33324 0.232526 7.60265 0.0785239 7.78465C-0.026134 7.90865 -0.026134 8.09065 0.0785239 8.21531C0.232526 8.39731 3.89258 12.6667 7.99999 12.6667C12.1074 12.6667 15.7674 8.39731 15.9214 8.21531C16.0181 8.10065 16.0268 7.93465 15.9408 7.81065ZM7.99999 12.0001C4.70728 12.0001 1.57655 8.86001 0.781222 8C1.57524 7.13933 4.70263 3.99993 7.99999 3.99993C11.8527 3.99993 14.5721 7.13533 15.2361 7.982C14.4694 8.81466 11.3207 12.0001 7.99999 12.0001Z"/>
        <path d="M7.99997 5.33327C6.52929 5.33327 5.33327 6.52929 5.33327 7.99996C5.33327 9.47064 6.52929 10.6667 7.99997 10.6667C9.47064 10.6667 10.6667 9.47064 10.6667 7.99996C10.6667 6.52929 9.47064 5.33327 7.99997 5.33327ZM7.99997 10C6.89729 10 5.99993 9.10267 5.99993 8C5.99993 6.89732 6.89729 5.99997 7.99997 5.99997C9.10264 5.99997 10 6.89732 10 8C10 9.10267 9.10264 10 7.99997 10Z"/>
        <rect x="3" y="1.25" width="0.5" height="2" transform="rotate(-30 3 1.25)"/>
        <rect x="13" y="1" width="0.5" height="2" transform="rotate(30 13 1)"/>
        <path d="M8.25 0L8 0V2H8.25V0Z"/>
        <path d="M8 0L7.75 0V2H8V0Z"/>
    </g>
    <defs>
        <clipPath id="clip0">
            <rect width="16" height="16"/>
        </clipPath>
    </defs>
</svg>
