<svg width="16" height="16" viewBox="0 0 16 16" xmlns="http://www.w3.org/2000/svg">
    <g clip-path="url(#clip0)">
        <path d="M15.9408 7.81066C15.8148 7.62732 12.7867 3.33325 7.99999 3.33325C3.89258 3.33325 0.232526 7.60266 0.0785239 7.78466C-0.026134 7.90867 -0.026134 8.09067 0.0785239 8.21533C0.232526 8.39733 3.89258 12.6667 7.99999 12.6667C12.1074 12.6667 15.7674 8.39733 15.9214 8.21533C16.0181 8.10067 16.0268 7.93467 15.9408 7.81066ZM7.99999 12.0001C4.70728 12.0001 1.57655 8.86002 0.781222 8.00001C1.57524 7.13934 4.70263 3.99995 7.99999 3.99995C11.8527 3.99995 14.5721 7.13534 15.2361 7.98201C14.4694 8.81468 11.3207 12.0001 7.99999 12.0001Z"/>
        <path d="M7.99998 5.33325C6.5293 5.33325 5.33328 6.52927 5.33328 7.99995C5.33328 9.47063 6.5293 10.6666 7.99998 10.6666C9.47066 10.6666 10.6667 9.47063 10.6667 7.99995C10.6667 6.52927 9.47066 5.33325 7.99998 5.33325ZM7.99998 10C6.89731 10 5.99995 9.10265 5.99995 7.99998C5.99995 6.89731 6.89731 5.99995 7.99998 5.99995C9.10265 5.99995 10 6.89731 10 7.99998C10 9.10265 9.10265 10 7.99998 10Z"/>
    </g>
    <defs>
        <clipPath id="clip0">
            <rect width="16" height="16"/>
        </clipPath>
    </defs>
</svg>
