<svg width="15" height="14" viewBox="0 0 15 14" xmlns="http://www.w3.org/2000/svg">
    <path d="M13.3843 0H1.2778C0.599818 0 0.0671387 0.513324 0.0671387 1.16668V12.8334C0.0671387 13.4867 0.599818 14 1.2778 14H6.84683H9.75241H13.3844C14.0623 14 14.595 13.4867 14.595 12.8333V1.16668C14.595 0.513324 14.0623 0 13.3843 0ZM7.33108 13.5333V8.86668H5.39402V7H7.33108V5.36668C7.33108 4.03668 8.39646 2.91668 9.75238 2.8H11.9316V4.66668H9.9945C9.58287 4.66668 9.26811 4.97 9.26811 5.36668V7H11.6894V8.86668H9.26814V13.5334H7.33108V13.5333ZM14.1107 12.8333C14.1107 13.23 13.796 13.5333 13.3843 13.5333H9.75238V9.33332H12.1737V6.53332H9.75238V5.36665C9.75238 5.22665 9.84922 5.13332 9.9945 5.13332H12.4158V2.33332H9.72818C8.10591 2.47332 6.8468 3.80332 6.8468 5.36665V6.53332H4.90975V9.33332H6.8468V13.5333H1.2778C0.866172 13.5333 0.551411 13.23 0.551411 12.8333V1.16668C0.551411 0.77 0.866172 0.466676 1.2778 0.466676H13.3844C13.796 0.466676 14.1108 0.77 14.1108 1.16668V12.8333H14.1107Z"/>
</svg>
