<svg width="18" height="18" viewBox="0 0 18 18" xmlns="http://www.w3.org/2000/svg">
    <g clip-path="url(#clip0)">
        <path d="M17.8086 7.31479L9.27628 1.06763C9.11175 0.947184 8.88823 0.947184 8.72377 1.06763L0.191416 7.31479C-0.0169906 7.4674 -0.0622719 7.76004 0.0903414 7.96845C0.242955 8.17686 0.53563 8.22207 0.744001 8.06952L8.99999 2.02462L17.256 8.06949C17.3392 8.13049 17.436 8.15984 17.5319 8.15984C17.6759 8.15984 17.818 8.09357 17.9096 7.96841C18.0622 7.76004 18.017 7.4674 17.8086 7.31479Z"/>
        <path d="M15.5477 8.17529C15.2895 8.17529 15.08 8.38468 15.08 8.64298V16.0873H11.3386V12.0237C11.3386 10.7342 10.2895 9.68511 9.00004 9.68511C7.71058 9.68511 6.66145 10.7342 6.66145 12.0237V16.0873H2.92002V8.64301C2.92002 8.38472 2.71059 8.17533 2.45233 8.17533C2.19408 8.17533 1.98465 8.38472 1.98465 8.64301V16.555C1.98465 16.8133 2.19408 17.0227 2.45233 17.0227H7.12913C7.37509 17.0227 7.57636 16.8327 7.59499 16.5915C7.59611 16.5805 7.59682 16.5686 7.59682 16.555V12.0237C7.59682 11.25 8.22629 10.6205 9.00004 10.6205C9.7738 10.6205 10.4033 11.25 10.4033 12.0237V16.555C10.4033 16.5685 10.404 16.5802 10.4051 16.591C10.4235 16.8325 10.6249 17.0227 10.871 17.0227H15.5478C15.806 17.0227 16.0154 16.8133 16.0154 16.555V8.64301C16.0154 8.38468 15.806 8.17529 15.5477 8.17529Z"/>
    </g>
    <defs>
        <clipPath id="clip0">
            <rect width="18" height="18"/>
        </clipPath>
    </defs>
</svg>
