<svg width="15" height="14" viewBox="0 0 15 14" xmlns="http://www.w3.org/2000/svg">
    <g clip-path="url(#clip0)">
        <path d="M12.4486 0H2.34223C1.12316 0 0.13147 0.955652 0.13147 2.13043V11.8696C0.13147 13.0443 1.12347 14 2.34223 14V13.9723C2.60026 14 3.06926 14 3.92135 14H12.4486C13.6677 14 14.6593 13.044 14.6593 11.8696V2.13043C14.6593 0.955652 13.6673 0 12.4486 0ZM14.0277 11.8696C14.0277 12.7087 13.3193 13.3913 12.4486 13.3913C12.4486 13.3913 2.41203 13.3913 2.34223 13.3913C1.47151 13.3913 0.763116 12.7087 0.763116 11.8696V2.13043C0.763116 1.29135 1.47151 0.608696 2.34223 0.608696H12.4486C13.3193 0.608696 14.0277 1.29135 14.0277 2.13043V11.8696Z"/>
        <path d="M7.39543 2.43481C4.78326 2.43481 2.65808 4.48277 2.65808 7.00003C2.65808 9.51729 4.78326 11.5652 7.39543 11.5652C10.0076 11.5652 12.1328 9.51729 12.1328 7.00003C12.1328 4.48277 10.0076 2.43481 7.39543 2.43481ZM7.39543 10.9566C5.13161 10.9566 3.28973 9.1816 3.28973 7.00003C3.28973 4.81847 5.13161 3.04351 7.39543 3.04351C9.65925 3.04351 11.5011 4.81847 11.5011 7.00003C11.5011 9.1816 9.65925 10.9566 7.39543 10.9566Z"/>
        <path d="M7.38057 4.24658C5.80524 4.24658 4.52332 5.48193 4.52332 7.00002C4.52332 8.51811 5.80524 9.75345 7.38057 9.75345C8.9559 9.75345 10.2378 8.51811 10.2378 7.00002C10.2378 5.48193 8.9559 4.24658 7.38057 4.24658ZM7.38057 9.14476C6.15328 9.14476 5.15496 8.18271 5.15496 7.00002C5.15496 5.81732 6.15328 4.85528 7.38057 4.85528C8.60786 4.85528 9.60618 5.81732 9.60618 7.00002C9.60618 8.18271 8.60786 9.14476 7.38057 9.14476Z"/>
        <path d="M12.1327 3.04344C12.4816 3.04344 12.7644 2.77092 12.7644 2.43475C12.7644 2.09857 12.4816 1.82605 12.1327 1.82605C11.7839 1.82605 11.5011 2.09857 11.5011 2.43475C11.5011 2.77092 11.7839 3.04344 12.1327 3.04344Z"/>
    </g>
    <defs>
        <clipPath id="clip0">
            <rect width="14.5279" height="14" fill="white" transform="translate(0.13147)"/>
        </clipPath>
    </defs>
</svg>
