<svg width="34" height="36" viewBox="0 0 34 36" xmlns="http://www.w3.org/2000/svg">
    <path d="M16.6245 13.6772C15.8071 13.6772 15.0079 13.9197 14.3282 14.3738C13.6485 14.828 13.1188 15.4735 12.8059 16.2288C12.4931 16.984 12.4112 17.8151 12.5707 18.6169C12.7302 19.4186 13.1238 20.1551 13.7019 20.7331C14.2799 21.3112 15.0164 21.7048 15.8182 21.8643C16.62 22.0238 17.451 21.942 18.2063 21.6291C18.9615 21.3163 19.607 20.7865 20.0612 20.1068C20.5154 19.4271 20.7578 18.628 20.7578 17.8105C20.7566 16.7147 20.3207 15.664 19.5459 14.8892C18.771 14.1143 17.7204 13.6784 16.6245 13.6772ZM16.6245 20.8916C16.0151 20.8916 15.4194 20.7109 14.9127 20.3724C14.4061 20.0338 14.0111 19.5526 13.7779 18.9896C13.5447 18.4266 13.4837 17.8071 13.6026 17.2094C13.7215 16.6117 14.0149 16.0627 14.4458 15.6318C14.8767 15.2009 15.4258 14.9074 16.0234 14.7885C16.6211 14.6697 17.2406 14.7307 17.8036 14.9639C18.3667 15.1971 18.8479 15.592 19.1864 16.0987C19.525 16.6054 19.7057 17.2011 19.7057 17.8105C19.7048 18.6274 19.3799 19.4106 18.8023 19.9882C18.2246 20.5659 17.4414 20.8908 16.6245 20.8916Z"/>
    <path d="M18.4281 17.2845C18.2886 17.2845 18.1548 17.34 18.0562 17.4386C17.9575 17.5373 17.9021 17.6711 17.9021 17.8106C17.9013 18.0343 17.8421 18.2539 17.7304 18.4477C17.6187 18.6415 17.4583 18.8028 17.2651 18.9156C17.2054 18.9504 17.1532 18.9966 17.1114 19.0516C17.0695 19.1066 17.0389 19.1693 17.0213 19.2361C17.0037 19.3029 16.9995 19.3725 17.0088 19.441C17.0181 19.5094 17.0408 19.5754 17.0756 19.6351C17.1104 19.6948 17.1566 19.747 17.2116 19.7889C17.2666 19.8307 17.3293 19.8613 17.3961 19.8789C17.4629 19.8965 17.5325 19.9007 17.601 19.8914C17.6694 19.8821 17.7354 19.8594 17.7951 19.8246C18.1469 19.6189 18.439 19.3249 18.6423 18.9716C18.8456 18.6184 18.9531 18.2182 18.9542 17.8106C18.9542 17.6711 18.8988 17.5373 18.8001 17.4386C18.7014 17.34 18.5676 17.2845 18.4281 17.2845Z"/>
    <path d="M30.2207 16.5811C30.4124 16.6315 30.6098 16.6573 30.808 16.658C31.2686 16.6578 31.7188 16.521 32.1016 16.265C32.4845 16.009 32.7829 15.6453 32.9592 15.2198C33.1355 14.7943 33.1817 14.3261 33.092 13.8744C33.0023 13.4226 32.7808 13.0076 32.4553 12.6817C32.4172 12.6438 32.3766 12.6096 32.3351 12.5744C32.7259 11.1574 32.6357 9.9231 32.0486 8.90527C30.7861 6.71691 27.4708 5.99997 22.9218 6.90568C21.4269 2.51332 19.1472 0 16.6245 0C14.1019 0 11.8225 2.51302 10.3261 6.90598C5.77619 5.99967 2.46177 6.71691 1.19955 8.90497C0.630516 9.88793 0.530716 11.1231 0.893541 12.4941C0.46528 12.8294 0.167831 13.304 0.0527491 13.8356C-0.0623326 14.3671 0.0122077 14.9222 0.26345 15.4046C0.514692 15.887 0.926799 16.2663 1.42834 16.4767C1.92988 16.6871 2.48924 16.7155 3.00946 16.5567C3.32149 16.9719 3.66327 17.3918 4.0315 17.8123C0.974703 21.3005 -0.0620667 24.5299 1.19925 26.7158C2.10556 28.2871 4.06727 29.102 6.7853 29.102C7.97514 29.0874 9.16076 28.9573 10.3255 28.7136C11.8216 33.1072 14.1016 35.6211 16.6245 35.6211C17.7644 35.6211 18.8887 35.0866 19.899 34.0808C20.3961 34.2986 20.9536 34.3359 21.4753 34.1863C21.997 34.0367 22.45 33.7096 22.7561 33.2615C23.0622 32.8133 23.2022 32.2723 23.1518 31.732C23.1015 31.1916 22.8639 30.6858 22.4802 30.302C22.4423 30.2638 22.4018 30.2292 22.3618 30.1944C22.5587 29.7287 22.7472 29.2324 22.9251 28.7136C24.0893 28.9575 25.2744 29.0876 26.4638 29.102C29.1815 29.102 31.1435 28.2868 32.0498 26.7158C33.3123 24.5299 32.2744 21.3005 29.2182 17.8127C29.5729 17.4077 29.9077 16.9959 30.2207 16.5811ZM31.711 15.2326C31.4713 15.4717 31.1465 15.606 30.8079 15.606C30.4693 15.606 30.1445 15.4717 29.9047 15.2326C29.7263 15.054 29.6047 14.8264 29.5556 14.5788C29.5064 14.3311 29.5317 14.0744 29.6284 13.8411C29.7251 13.6078 29.8887 13.4085 30.0987 13.2682C30.3087 13.1279 30.5555 13.0531 30.808 13.0531C31.0606 13.0531 31.3074 13.1279 31.5174 13.2682C31.7273 13.4085 31.891 13.6078 31.9877 13.8411C32.0844 14.0744 32.1097 14.3311 32.0605 14.5788C32.0113 14.8264 31.8895 15.054 31.711 15.2326ZM31.1384 9.43102C31.5499 10.1455 31.6293 11.0338 31.3816 12.0763C30.8876 11.9507 30.366 11.9906 29.8969 12.1901C29.4278 12.3895 29.0372 12.7373 28.7849 13.1802C28.5326 13.6231 28.4326 14.1366 28.5003 14.6418C28.568 15.147 28.7996 15.616 29.1596 15.9769C29.1974 16.0151 29.238 16.0493 29.278 16.0845C29.0339 16.4023 28.7762 16.7178 28.5048 17.0308C27.2154 15.6919 25.8111 14.4687 24.3079 13.3752C24.1115 11.5273 23.7555 9.69998 23.2437 7.91359C27.2081 7.14706 30.1398 7.70017 31.1384 9.43102ZM22.2124 27.4845C20.7489 27.1274 19.3142 26.661 17.9204 26.0894C18.8177 25.6556 19.7114 25.1843 20.5882 24.6781C21.472 24.167 22.3272 23.6284 23.1433 23.0707C22.9438 24.5632 22.6326 26.0386 22.2124 27.4845ZM11.0367 27.4845C10.6162 26.0386 10.3047 24.5632 10.1048 23.0707C10.9231 23.6284 11.778 24.1676 12.6614 24.6781C13.5374 25.1843 14.4302 25.6562 15.3289 26.0894C13.9351 26.661 12.5003 27.1274 11.0367 27.4845ZM11.0367 8.13664C12.5002 8.4937 13.9349 8.96003 15.3286 9.53172C14.4311 9.96549 13.5377 10.4368 12.6608 10.9445C11.7771 11.4556 10.9219 11.9942 10.1042 12.5519C10.3041 11.0589 10.6158 9.58298 11.0367 8.13664ZM8.80894 20.8268C7.61564 19.9079 6.49397 18.8996 5.45364 17.8105C6.49406 16.7216 7.61573 15.7133 8.80894 14.7943C8.73469 15.7863 8.69531 16.7972 8.69531 17.8105C8.69531 18.8239 8.73409 19.8336 8.80894 20.8268ZM13.1878 23.7666C12.0491 23.1092 10.9594 22.4034 9.93919 21.6693C9.81354 20.4095 9.74741 19.1142 9.74741 17.8105C9.74741 16.5068 9.81354 15.2119 9.93919 13.9517C10.9585 13.2183 12.0485 12.5122 13.1878 11.8545C14.315 11.2031 15.4705 10.6109 16.6248 10.0875C17.78 10.6112 18.9352 11.2034 20.0625 11.8545C21.2012 12.5119 22.2908 13.2177 23.3111 13.9517C23.4367 15.2116 23.5029 16.5068 23.5029 17.8105C23.5029 19.1142 23.4367 20.4092 23.3111 21.6693C22.2917 22.4028 21.2018 23.1089 20.0625 23.7666C18.9352 24.418 17.7797 25.0102 16.6254 25.5336C15.4696 25.0099 14.315 24.4177 13.1878 23.7666ZM22.213 8.13544C22.6335 9.58131 22.945 11.0567 23.1449 12.5491C22.3266 11.9915 21.4717 11.4523 20.5898 10.9418C19.7117 10.4368 18.8189 9.96489 17.9201 9.53172C19.314 8.96007 20.7488 8.49374 22.2124 8.13664L22.213 8.13544ZM24.4401 14.7943C25.6334 15.7132 26.7551 16.7215 27.7954 17.8105C26.755 18.8995 25.6333 19.9078 24.4401 20.8268C24.5144 19.8348 24.5538 18.8239 24.5538 17.8105C24.5538 16.7972 24.515 15.7875 24.4401 14.7943ZM16.6245 1.0521C18.6199 1.0521 20.5663 3.31532 21.8895 7.13173C20.0858 7.58014 18.3241 8.18359 16.6242 8.93533C14.9246 8.1835 13.1631 7.58006 11.3595 7.13173C12.6831 3.31502 14.6292 1.0521 16.6245 1.0521ZM1.4229 15.2326C1.21324 15.0236 1.08256 14.7483 1.05314 14.4537C1.02373 14.1591 1.09739 13.8635 1.26157 13.6171C1.42575 13.3707 1.67029 13.189 1.95351 13.1027C2.23673 13.0165 2.54108 13.0311 2.8147 13.1442C3.08832 13.2572 3.31426 13.4617 3.45401 13.7227C3.59376 13.9837 3.63867 14.2851 3.58108 14.5755C3.52349 14.8659 3.36697 15.1273 3.13819 15.3152C2.90942 15.5031 2.62255 15.6059 2.3265 15.6059C2.15862 15.6066 1.99228 15.574 1.83711 15.5099C1.68195 15.4458 1.54135 15.3516 1.4229 15.2326ZM3.97349 12.6817C3.70128 12.41 3.36603 12.2099 2.99765 12.0992C2.62928 11.9886 2.23925 11.9709 1.86237 12.0477C1.61949 11.0179 1.70065 10.1389 2.11037 9.43253C3.10926 7.70077 6.04101 7.14797 10.0053 7.9148C9.49356 9.7013 9.13742 11.5288 8.9409 13.3767C7.43767 14.469 6.03319 15.6911 4.74362 17.029C4.45084 16.6911 4.17729 16.3552 3.92299 16.0214C3.93952 16.0057 3.95725 15.9913 3.97349 15.9754C4.40985 15.5382 4.65493 14.9458 4.65493 14.3281C4.65493 13.7104 4.40985 13.1189 3.97349 12.6817ZM2.10977 26.1898C1.11358 24.4607 2.10015 21.6444 4.74513 18.5921C6.0343 19.9304 7.43837 21.153 8.9412 22.2459C9.13753 24.0937 9.49357 25.9211 10.0053 27.7075C6.04071 28.4734 3.10836 27.9209 2.10977 26.1898ZM21.7362 32.8526C21.5272 33.0623 21.2518 33.193 20.9572 33.2225C20.6625 33.2519 20.3668 33.1783 20.1203 33.0141C19.8739 32.8498 19.692 32.6052 19.6058 32.3219C19.5195 32.0387 19.5342 31.7342 19.6473 31.4605C19.7603 31.1868 19.9648 30.9608 20.2259 30.821C20.487 30.6813 20.7884 30.6364 21.0789 30.694C21.3694 30.7516 21.6309 30.9082 21.8188 31.137C22.0068 31.3659 22.1095 31.6528 22.1096 31.949C22.1097 32.2877 21.9754 32.6127 21.7362 32.8526ZM20.8344 29.6202C20.3911 29.6202 19.9569 29.7467 19.583 29.9849C19.2091 30.2231 18.911 30.5631 18.7236 30.965C18.5363 31.3668 18.4676 31.8137 18.5255 32.2533C18.5834 32.6928 18.7656 33.1067 19.0507 33.4463C18.2691 34.1908 17.4551 34.569 16.626 34.569C14.6307 34.569 12.6843 32.3058 11.361 28.4894C13.1648 28.0409 14.9265 27.4375 16.6263 26.6858C18.3264 27.4376 20.0882 28.0411 21.8923 28.4894C21.745 28.9117 21.5916 29.316 21.4311 29.6993C21.236 29.6472 21.0349 29.6206 20.8329 29.6202H20.8344ZM31.1402 26.1898C30.1413 27.9212 27.2096 28.4743 23.2453 27.7075C23.757 25.921 24.1132 24.0935 24.3097 22.2456C25.8119 21.1528 27.2154 19.9302 28.5039 18.5921C31.1489 21.6444 32.1355 24.4607 31.1387 26.1898H31.1402Z"/>
</svg>
