<svg width="18" height="18" viewBox="0 0 18 18" xmlns="http://www.w3.org/2000/svg">
    <g clip-path="url(#clip0)">
        <path d="M0.923098 3H17.0769C17.5846 3 18 3.41537 18 3.92306V14.0769C18 14.5846 17.5846 15 17.0769 15H0.923063C0.415407 15 -3.43323e-05 14.5847 -3.43323e-05 14.0769V3.92306C0 3.41537 0.415371 3 0.923098 3ZM1.26949 3.69226L8.469 9.09233C8.59844 9.19084 8.79715 9.25247 9.00004 9.25155C9.20289 9.25247 9.40155 9.19084 9.53104 9.09233L16.7305 3.69226H1.26949ZM5.11523 9.44864L1.19215 14.2948C1.18821 14.2997 1.18339 14.3034 1.17921 14.3078H16.8208C16.8166 14.3032 16.8118 14.2997 16.8079 14.2948L12.8848 9.44864C12.7646 9.30003 12.7873 9.08217 12.9362 8.96169C13.0848 8.84149 13.3027 8.86427 13.4229 9.01291L17.3077 13.8118V4.12496L9.9462 9.64611C9.66948 9.8522 9.33282 9.9429 9.00007 9.94382C8.66777 9.94311 8.33084 9.85241 8.05395 9.64611L0.692438 4.12496V13.8117L4.5771 9.01291C4.69733 8.86431 4.91541 8.84146 5.0638 8.96169C5.21265 9.08189 5.2355 9.30003 5.11523 9.44864Z"/>
    </g>
    <defs>
        <clipPath id="clip0">
            <rect width="18" height="18" transform="matrix(-1 0 0 1 18 0)"/>
        </clipPath>
    </defs>
</svg>
