<svg width="16" height="16" viewBox="0 0 16 16" xmlns="http://www.w3.org/2000/svg">
    <g clip-path="url(#clip0)">
        <path d="M13.6668 13.3334C13.6294 13.3334 13.5928 13.3274 13.5568 13.3147L0.223436 8.64802C0.0981024 8.60469 0.010769 8.49002 0.000768986 8.35735C-0.00856435 8.22469 0.0614357 8.09869 0.179436 8.03802L15.5128 0.0380187C15.6248 -0.020648 15.7588 -0.010648 15.8614 0.0626854C15.9634 0.136019 16.0154 0.261352 15.9961 0.385352L13.9961 13.052C13.9808 13.1494 13.9228 13.2354 13.8381 13.286C13.7854 13.3174 13.7261 13.3334 13.6668 13.3334ZM1.1701 8.27269L13.4001 12.5534L15.2348 0.934685L1.1701 8.27269Z"/>
        <path d="M6.33333 15.3333C6.3 15.3333 6.266 15.3279 6.23333 15.3179C6.09467 15.2739 6 15.1453 6 14.9999V10.3333C6 10.2486 6.032 10.1673 6.09 10.1059L15.4233 0.105935C15.5493 -0.028065 15.7607 -0.0353983 15.894 0.089935C16.0287 0.215268 16.036 0.426602 15.91 0.560602L6.66667 10.4646V13.9439L8.632 11.1419C8.73733 10.9906 8.94733 10.9546 9.096 11.0606C9.24667 11.1659 9.28333 11.3739 9.17733 11.5246L6.606 15.1913C6.54267 15.2819 6.44 15.3333 6.33333 15.3333Z"/>
    </g>
    <defs>
        <clipPath id="clip0">
            <rect width="16" height="16"/>
        </clipPath>
    </defs>
</svg>
