<svg width="15" height="14" viewBox="0 0 15 14" xmlns="http://www.w3.org/2000/svg">
    <g clip-path="url(#clip0)">
        <path d="M14.5761 2.58064C14.5021 2.50936 14.3788 2.48559 14.2802 2.50936L13.787 2.67571C14.0829 2.34304 14.2802 1.98659 14.4035 1.65392C14.4528 1.53511 14.4281 1.44006 14.3541 1.36876C14.2802 1.29748 14.1569 1.27371 14.0582 1.32122C13.3678 1.60639 12.776 1.84401 12.2828 1.98657C12.2828 2.01034 12.2581 1.98657 12.2335 1.98657C11.8389 1.77271 10.8773 1.29745 10.1868 1.29745C8.43604 1.32122 7.03051 2.74699 7.03051 4.48166V4.5767C4.46601 4.10145 3.06048 3.38856 1.53163 1.84399L1.2851 1.60636L1.13714 1.89152C0.298752 3.4361 0.890555 4.8381 1.85224 5.78861C1.40839 5.71733 1.11248 5.57475 0.841227 5.36089C0.742597 5.28961 0.619304 5.26584 0.49601 5.33712C0.397381 5.38466 0.348052 5.52721 0.372717 5.64602C0.717933 6.76286 1.58099 7.66586 2.51801 8.21239C2.07416 8.21239 1.70428 8.16485 1.3344 7.92723C1.23577 7.87969 1.08781 7.87969 0.989185 7.95099C0.890555 8.0223 0.841227 8.14109 0.890555 8.2599C1.3344 9.4718 2.19746 10.1134 3.57835 10.2797C2.86325 10.6837 1.92623 11.0164 0.471374 11.0402C0.323416 11.0402 0.200123 11.1352 0.150822 11.254C0.101493 11.3966 0.150822 11.5154 0.249451 11.6105C1.13717 12.2996 3.10984 12.7035 5.55105 12.7035C9.89096 12.7035 13.4418 8.97281 13.4418 4.38661V4.31533C13.9843 4.05394 14.4282 3.55491 14.6501 2.8658C14.6747 2.77073 14.6501 2.65191 14.5761 2.58064ZM13.0966 3.9351L12.9486 3.98263V4.38661C12.9486 8.71141 9.61968 12.2283 5.55102 12.2283C3.30707 12.2283 1.80291 11.8718 0.989185 11.4916C2.69063 11.3728 3.67698 10.85 4.44141 10.2797L5.05787 9.85202H4.31811C2.91258 9.85202 2.04953 9.47181 1.55635 8.56883C2.0002 8.71141 2.46871 8.71141 2.98655 8.68765C3.1838 8.66388 3.38109 8.66388 3.57835 8.66388L3.65232 8.18862C2.7153 7.92723 1.60565 7.1193 1.06315 6.02623C1.55632 6.24009 2.0988 6.28763 2.59197 6.28763H3.3564L2.73996 5.85988C2.22212 5.50344 0.693297 4.24403 1.43306 2.43805C3.01121 3.9351 4.5154 4.62421 7.22783 5.09947L7.52375 5.147V4.48166C7.52375 3.00838 8.70735 1.79648 10.1869 1.77271C10.754 1.74894 11.6911 2.24796 11.9623 2.39055C12.1102 2.46182 12.2582 2.48559 12.4061 2.43808C12.776 2.31927 13.2199 2.15292 13.713 1.96283C13.4911 2.31927 13.1952 2.65194 12.8007 2.96087C12.702 3.03215 12.6774 3.17473 12.7267 3.29355C12.776 3.41236 12.924 3.4599 13.0473 3.41236L14.0089 3.10345C13.8363 3.41233 13.5651 3.76877 13.0966 3.9351Z"/>
    </g>
    <defs>
        <clipPath id="clip0">
            <rect width="14.5279" height="14" transform="translate(0.13147)"/>
        </clipPath>
    </defs>
</svg>
