<svg width="18" height="18" viewBox="0 0 18 18" xmlns="http://www.w3.org/2000/svg">
    <g clip-path="url(#clip0)">
        <path d="M8.99997 3.13037C7.48955 3.13037 6.26083 4.35905 6.26083 5.86951C6.26083 7.37997 7.48952 8.60865 8.99997 8.60865C10.5104 8.60865 11.7391 7.37993 11.7391 5.86951C11.7391 4.35909 10.5104 3.13037 8.99997 3.13037ZM8.99997 7.82602C7.92155 7.82602 7.04347 6.94793 7.04347 5.86951C7.04347 4.79109 7.92155 3.913 8.99997 3.913C10.0784 3.913 10.9565 4.79109 10.9565 5.86951C10.9565 6.94793 10.0784 7.82602 8.99997 7.82602Z"/>
        <path d="M14.4783 6.26086C13.3998 6.26086 12.5218 7.13895 12.5218 8.21737C12.5218 9.2958 13.3998 10.1739 14.4783 10.1739C15.5567 10.1739 16.4348 9.2958 16.4348 8.21737C16.4348 7.13895 15.5567 6.26086 14.4783 6.26086ZM14.4783 9.39129C13.831 9.39129 13.3044 8.8646 13.3044 8.21737C13.3044 7.57014 13.831 7.04346 14.4783 7.04346C15.1255 7.04346 15.6522 7.57014 15.6522 8.21737C15.6522 8.8646 15.1255 9.39129 14.4783 9.39129Z"/>
        <path d="M3.5773 6.26086C2.49807 6.26086 1.62079 7.13895 1.62079 8.21737C1.62079 9.2958 2.49887 10.1739 3.5773 10.1739C4.65572 10.1739 5.5338 9.2958 5.5338 8.21737C5.5338 7.13895 4.65649 6.26086 3.5773 6.26086ZM3.5773 9.39129C2.93007 9.39129 2.40338 8.8646 2.40338 8.21737C2.40338 7.57014 2.93007 7.04346 3.5773 7.04346C4.22452 7.04346 4.75121 7.57014 4.75121 8.21737C4.75121 8.8646 4.22449 9.39129 3.5773 9.39129Z"/>
        <path d="M8.99999 9.39136C6.19511 9.39136 3.91302 11.6734 3.91302 14.4783C3.91302 14.6943 4.08834 14.8696 4.30434 14.8696C4.52034 14.8696 4.69566 14.6943 4.69566 14.4783C4.69566 12.1047 6.62634 10.174 8.99999 10.174C11.3736 10.174 13.3043 12.1047 13.3043 14.4783C13.3043 14.6943 13.4796 14.8696 13.6956 14.8696C13.9116 14.8696 14.087 14.6943 14.087 14.4783C14.087 11.6734 11.8049 9.39136 8.99999 9.39136Z"/>
        <path d="M14.4783 10.9565C13.8342 10.9565 13.2034 11.1326 12.654 11.4653C12.4701 11.5779 12.4106 11.8182 12.5225 12.0029C12.636 12.1876 12.8755 12.2463 13.0602 12.1344C13.4867 11.8753 13.9766 11.7391 14.4783 11.7391C15.9887 11.7391 17.2174 12.9678 17.2174 14.4783C17.2174 14.6943 17.3927 14.8696 17.6087 14.8696C17.8247 14.8696 18 14.6943 18 14.4783C18 12.5366 16.4199 10.9565 14.4783 10.9565Z"/>
        <path d="M5.34523 11.4644C4.79661 11.1326 4.16585 10.9565 3.52174 10.9565C1.58009 10.9565 0 12.5366 0 14.4783C0 14.6943 0.175316 14.8696 0.391316 14.8696C0.607316 14.8696 0.782633 14.6943 0.782633 14.4783C0.782596 12.9678 2.01132 11.7391 3.52174 11.7391C4.0234 11.7391 4.51329 11.8753 4.93905 12.1336C5.12295 12.2455 5.36401 12.1868 5.4767 12.0021C5.5894 11.8174 5.5299 11.5771 5.34523 11.4644Z"/>
    </g>
    <defs>
        <clipPath id="clip0">
            <rect width="18" height="18"/>
        </clipPath>
    </defs>
</svg>
